<svg width="58" height="58" viewBox="0 0 58 58" fill="none" xmlns="http://www.w3.org/2000/svg">
<path d="M43.1785 0H14.8215C6.6358 0 0 6.6358 0 14.8215V43.1785C0 51.3642 6.6358 58 14.8215 58H43.1785C51.3642 58 58 51.3642 58 43.1785V14.8215C58 6.6358 51.3642 0 43.1785 0Z" fill="url(#paint0_linear_9_2424)"/>
<path d="M35.144 43.7143H20.712C19.1547 43.7143 17.7467 43.4263 16.488 42.8503C15.2293 42.2743 14.1413 41.4743 13.224 40.4503C12.328 39.4263 11.6347 38.2423 11.144 36.8983C10.6533 35.533 10.408 34.0716 10.408 32.5143C10.408 30.9783 10.6533 29.5383 11.144 28.1943C11.6347 26.829 12.328 25.6343 13.224 24.6103C14.1413 23.565 15.2293 22.7543 16.488 22.1783C17.7467 21.6023 19.1547 21.3143 20.712 21.3143H35.144V24.5143H20.712C19.24 24.5143 17.9707 24.877 16.904 25.6023C15.8587 26.3063 15.048 27.2663 14.472 28.4823C13.896 29.6983 13.608 31.0423 13.608 32.5143C13.608 33.9863 13.896 35.3303 14.472 36.5463C15.048 37.741 15.8587 38.701 16.904 39.4263C17.9707 40.1516 19.24 40.5143 20.712 40.5143H31.944V34.1143H18.376V30.9143H35.144V43.7143Z" fill="white"/>
<path d="M48.3658 21.6C48.3658 23.072 48.0031 24.416 47.2778 25.632C46.5738 26.8267 45.6138 27.7867 44.3978 28.512C43.1818 29.2373 41.8378 29.6 40.3658 29.6H27.5018V26.432H40.3658C41.2618 26.432 42.0724 26.2187 42.7978 25.792C43.5231 25.344 44.0991 24.7573 44.5258 24.032C44.9524 23.2853 45.1658 22.4747 45.1658 21.6C45.1658 20.704 44.9524 19.8933 44.5258 19.168C44.0991 18.4427 43.5231 17.8667 42.7978 17.44C42.0724 17.0133 41.2618 16.8 40.3658 16.8H25.7098V36H22.5098V13.6H40.3658C41.8378 13.6 43.1818 13.9627 44.3978 14.688C45.6138 15.392 46.5738 16.352 47.2778 17.568C48.0031 18.784 48.3658 20.128 48.3658 21.6Z" fill="white"/>
<rect x="45.4419" y="15.1818" width="3.24" height="4.00628" transform="rotate(45 45.4419 15.1818)" fill="#35396B"/>
<path d="M16.2295 37.6919L18.4996 39.9619L15.5 43L13.3194 40.602L16.2295 37.6919Z" fill="url(#paint1_linear_9_2424)"/>
<defs>
<linearGradient id="paint0_linear_9_2424" x1="29" y1="18" x2="29" y2="58" gradientUnits="userSpaceOnUse">
<stop stop-color="#343869"/>
<stop offset="1" stop-color="#676FC5"/>
</linearGradient>
<linearGradient id="paint1_linear_9_2424" x1="17.3645" y1="38.8269" x2="14.4544" y2="41.737" gradientUnits="userSpaceOnUse">
<stop stop-color="#4E5598"/>
<stop offset="1" stop-color="#545BA2"/>
</linearGradient>
</defs>
</svg>
